<svg width="32" height="32" viewBox="0 0 32 32" fill="none" xmlns="http://www.w3.org/2000/svg">
<g clip-path="url(#clip0)">
<path d="M30.7627 8.19214C30.1851 7.48653 29.2869 7.05766 28.3573 7.05766H8.82662L8.21778 4.78871C7.86448 3.46973 6.6468 2.54968 5.2349 2.54968H1.96396C1.419 2.54968 0.969238 2.97855 0.969238 3.50089C0.969238 4.022 1.41772 4.45209 1.96396 4.45209H5.2349C5.71597 4.45209 6.13315 4.75877 6.26092 5.2188L10.1733 20.1242C10.5266 21.4431 11.7443 22.3632 13.1562 22.3632H25.9519C27.3626 22.3632 28.6141 21.4431 28.9348 20.1242L31.3401 10.678C31.5644 9.81789 31.3727 8.89785 30.7626 8.19223L30.7627 8.19214ZM29.3846 10.2467L26.9793 19.6928C26.8515 20.1528 26.4343 20.4595 25.9532 20.4595H13.1562C12.6751 20.4595 12.2579 20.1528 12.1302 19.6928L9.34024 8.99019H28.3588C28.6795 8.99019 29.0002 9.14353 29.1931 9.38912C29.3848 9.63351 29.48 9.9402 29.3848 10.2469L29.3846 10.2467Z" fill="white"/>
<path d="M13.8307 23.5873C12.0029 23.5873 10.4959 25.0285 10.4959 26.7762C10.4959 28.5239 12.003 29.9651 13.8307 29.9651C15.6585 29.9663 17.1654 28.5251 17.1654 26.7771C17.1654 25.0291 15.6583 23.587 13.8307 23.587V23.5873ZM13.8307 28.0342C13.0928 28.0342 12.5152 27.482 12.5152 26.7763C12.5152 26.0707 13.0928 25.5185 13.8307 25.5185C14.5686 25.5185 15.1461 26.0707 15.1461 26.7763C15.1449 27.452 14.536 28.0342 13.8307 28.0342Z" fill="white"/>
<path d="M24.8626 23.5872C23.0348 23.5872 21.5278 25.0283 21.5278 26.776C21.5278 28.5238 23.0349 29.9649 24.8626 29.9649C26.6903 29.9649 28.1974 28.5238 28.1974 26.776C28.166 25.0294 26.6903 23.5872 24.8626 23.5872ZM24.8626 28.034C24.1247 28.034 23.5472 27.4818 23.5472 26.7762C23.5472 26.0705 24.1247 25.5183 24.8626 25.5183C25.6005 25.5183 26.178 26.0705 26.178 26.7762C26.178 27.4518 25.5679 28.034 24.8626 28.034Z" fill="white"/>
</g>
<defs>
<clipPath id="clip0">
<rect width="30.4615" height="30.4615" fill="white" transform="translate(0.969238 0.769287)"/>
</clipPath>
</defs>
</svg>
