<svg width="21" height="20" viewBox="0 0 21 20" fill="none" xmlns="http://www.w3.org/2000/svg">
<g clip-path="url(#clip0)">
<path d="M17.7593 7.34061C18.1942 7.67698 18.6275 8.01163 19.0615 8.34714C19.1249 8.39568 19.1875 8.44507 19.2509 8.49361C19.4232 8.6256 19.7126 8.52938 19.8077 8.34033C19.9199 8.11894 19.8443 7.89924 19.6614 7.75702C19.2265 7.42065 18.7933 7.08601 18.3592 6.75049C18.2958 6.70195 18.2332 6.65256 18.1698 6.60402C17.9975 6.47203 17.7081 6.56826 17.613 6.7573C17.5017 6.9804 17.5773 7.20009 17.7593 7.34061Z" fill="#FFA500"/>
<path d="M1.29122 8.49452C1.94555 7.99041 2.59826 7.48544 3.2518 6.98303C3.44525 6.83401 3.64034 6.68498 3.83298 6.53341C4.00368 6.40142 4.10772 6.15872 3.97929 5.9501C3.86956 5.77297 3.60538 5.6563 3.42249 5.79682C2.73158 6.32903 2.03905 6.86295 1.34811 7.39517C1.19205 7.51609 1.03517 7.63531 0.88073 7.75708C0.710034 7.88907 0.605992 8.13177 0.73442 8.3404C0.844152 8.51837 1.10914 8.63504 1.29122 8.49452Z" fill="#FFA500"/>
<path d="M17.5587 6.97202V7.17507V17.6256C17.5587 17.9674 17.5603 18.3101 17.5587 18.6519C17.5587 18.6533 17.5587 18.6546 17.5587 18.656V18.6713C17.5594 18.6126 17.5592 18.6246 17.5587 18.6519C17.5585 18.6631 17.5583 18.677 17.558 18.6896C17.5576 18.7166 17.5571 18.7378 17.5571 18.7156C17.5571 18.7709 17.5815 18.639 17.5587 18.6883C17.5585 18.6888 17.5583 18.6892 17.558 18.6896C17.553 18.6997 17.5495 18.7128 17.5471 18.7253C17.5459 18.7317 17.5449 18.738 17.5441 18.7437C17.5359 18.7948 17.5847 18.6798 17.5522 18.7181C17.5505 18.7203 17.5488 18.7227 17.5471 18.7253C17.5419 18.7331 17.5367 18.7423 17.5324 18.751C17.53 18.7559 17.5279 18.7607 17.5262 18.765C17.5059 18.8118 17.5815 18.7139 17.5408 18.7437C17.5382 18.7459 17.5353 18.7484 17.5324 18.751C17.5227 18.7598 17.5123 18.7703 17.5057 18.7798C17.5052 18.7805 17.5047 18.7813 17.5042 18.782C17.4842 18.8089 17.5731 18.7315 17.5057 18.7798C17.5047 18.7805 17.5037 18.7812 17.5026 18.782C17.4988 18.7836 17.4942 18.7864 17.4904 18.7888C17.4907 18.7887 17.4902 18.789 17.4904 18.7888C17.4595 18.8059 17.4595 18.8059 17.4904 18.7905C17.4985 18.7863 17.5067 18.7837 17.5148 18.7803C17.5071 18.783 17.4987 18.7861 17.4904 18.7888C17.4855 18.7904 17.4812 18.7915 17.4758 18.7931C17.4653 18.7958 17.458 18.798 17.453 18.7998C17.412 18.8143 17.5395 18.7976 17.4473 18.7999H3.97858C3.70222 18.7999 3.42748 18.8016 3.1511 18.7999H3.12328H3.10639C3.03161 18.7999 3.12671 18.7956 3.1324 18.8041C3.13196 18.803 3.12839 18.8015 3.12328 18.7999C3.11272 18.7966 3.09557 18.7928 3.08577 18.7904C3.08303 18.7898 3.08086 18.7892 3.07957 18.7888C3.00235 18.7701 3.10558 18.7931 3.10233 18.799C3.10165 18.7998 3.09439 18.7957 3.08577 18.7904C3.07579 18.7844 3.06399 18.7768 3.05846 18.7733C3.05738 18.7726 3.05654 18.7721 3.056 18.7718C2.98582 18.7367 3.09793 18.8262 3.05846 18.7733C3.0577 18.7723 3.05688 18.7712 3.056 18.7701C3.05671 18.7719 3.04984 18.7649 3.04187 18.7561C3.03157 18.7448 3.01942 18.7307 3.01942 18.7292C3.02075 18.7275 3.02278 18.7273 3.02483 18.7288C3.025 18.7291 3.02517 18.7294 3.02534 18.7297C3.03068 18.7342 3.03743 18.7466 3.04187 18.7561C3.04827 18.7699 3.0499 18.7778 3.03568 18.7479C3.03641 18.7499 3.03125 18.7406 3.02534 18.7297C3.02517 18.7294 3.025 18.7291 3.02483 18.7288C3.01768 18.7156 3.00967 18.7003 3.00967 18.6994C3.01066 18.6988 3.01164 18.6987 3.01259 18.6991C3.018 18.7009 3.02246 18.7162 3.02483 18.7288C3.025 18.7291 3.02517 18.7294 3.02534 18.7297C3.02841 18.7467 3.02719 18.7581 3.01942 18.7232C3.01942 18.7253 3.01608 18.7127 3.01259 18.6991C3.01221 18.6976 3.01183 18.6961 3.01145 18.6946C3.00803 18.6811 3.00479 18.6679 3.00479 18.6679C3.00653 18.6677 3.00786 18.6694 3.00885 18.6724C3.01053 18.6775 3.01126 18.6861 3.01145 18.6946C3.01194 18.7163 3.00885 18.7372 3.00885 18.6951V18.6724V7.16214V6.94974C2.9422 7.07321 2.87473 7.19498 2.80727 7.31761C2.87448 7.26584 2.94167 7.21401 3.00885 7.16214C3.43569 6.83257 3.86208 6.50115 4.28908 6.17228C4.61665 5.92108 4.94097 5.66986 5.26855 5.41866C5.88467 4.9435 6.50244 4.46918 7.11775 3.99231C7.83468 3.4388 8.55485 2.88531 9.27187 2.33179C9.60652 2.0746 9.95102 1.82589 10.2824 1.56111C10.3438 1.51205 10.4048 1.46243 10.4651 1.41211C10.4716 1.40785 10.4773 1.4036 10.483 1.39934H10.0725C10.1426 1.45333 10.2126 1.50724 10.2824 1.56111C10.5431 1.76214 10.8026 1.96255 11.0642 2.16403C11.1215 2.20817 11.1788 2.25232 11.2362 2.29645C11.8843 2.79549 12.5317 3.29404 13.1792 3.79475C13.8294 4.29716 14.4797 4.79788 15.13 5.30027C15.3836 5.49613 15.638 5.69199 15.8924 5.88784C15.9041 5.89683 15.9157 5.90582 15.9273 5.91482C16.4705 6.3349 17.0137 6.75499 17.5587 7.17507C17.6096 7.21434 17.6606 7.25362 17.7116 7.29289C17.7278 7.30566 17.7457 7.31843 17.762 7.33376C17.9343 7.46575 18.2237 7.36953 18.3188 7.18048C18.431 6.95909 18.3578 6.73939 18.1725 6.59717C17.6132 6.16713 17.0548 5.73541 16.4964 5.30282C16.2322 5.09845 15.9697 4.89577 15.7063 4.69395C15.0926 4.22134 14.4789 3.74702 13.8628 3.27358C13.141 2.71836 12.42 2.1623 11.6991 1.60456C11.3008 1.29801 10.909 0.972716 10.5002 0.680623C10.4936 0.676365 10.488 0.672108 10.4823 0.66785C10.3766 0.586954 10.1775 0.586954 10.0718 0.66785C9.59057 1.03827 9.111 1.40869 8.62898 1.77913C7.73485 2.46889 6.84072 3.15693 5.94819 3.84669C5.44423 4.23671 4.93864 4.62585 4.43469 5.01332C3.80475 5.49871 3.17641 5.98408 2.5489 6.46947C2.4985 6.50779 2.44892 6.54611 2.39852 6.58698C2.27253 6.68491 2.20182 6.79561 2.19531 6.96762C2.19369 7.01872 2.19531 7.06981 2.19531 7.1209V17.3564C2.19531 17.7924 2.18556 18.2318 2.19531 18.6678C2.20751 19.2111 2.61636 19.6385 3.13414 19.6487H17.2448C17.4822 19.6487 17.7098 19.647 17.9235 19.504C18.208 19.3166 18.3706 18.9973 18.3722 18.6465V6.96164C18.3722 6.73855 18.1853 6.52565 17.9658 6.53587C17.7431 6.55716 17.5587 6.73359 17.5587 6.97202Z" fill="#FFA500"/>
<path d="M17.5587 7.17507C17.0137 6.75499 16.4705 6.3349 15.9273 5.91482L15.8924 5.88784C15.638 5.69199 15.3836 5.49613 15.13 5.30027C14.4797 4.79788 13.8294 4.29716 13.1792 3.79475C12.5317 3.29404 11.8843 2.79549 11.2362 2.29645L11.0642 2.16403C10.8026 1.96255 10.5431 1.76214 10.2824 1.56111C9.95102 1.82589 9.60652 2.0746 9.27187 2.33179C8.55485 2.88531 7.83468 3.4388 7.11775 3.99231C6.50244 4.46918 5.88467 4.9435 5.26855 5.41866C4.94097 5.66986 4.61665 5.92108 4.28908 6.17228C3.86208 6.50115 3.43569 6.83257 3.00885 7.16214V18.6724C3.01053 18.6775 3.01126 18.6861 3.01145 18.6946C3.01183 18.6961 3.01221 18.6976 3.01259 18.6991C3.018 18.7009 3.02246 18.7162 3.02483 18.7288C3.025 18.7291 3.02517 18.7294 3.02534 18.7297C3.03068 18.7342 3.03743 18.7466 3.04187 18.7561C3.04984 18.7649 3.05671 18.7719 3.056 18.7701C3.05688 18.7712 3.0577 18.7723 3.05846 18.7733C3.06399 18.7768 3.07579 18.7844 3.08577 18.7904C3.09557 18.7928 3.11272 18.7966 3.12328 18.7999H3.1511C3.42748 18.8016 3.70222 18.7999 3.97858 18.7999H17.4473C17.4493 18.7998 17.4512 18.7998 17.453 18.7998C17.458 18.798 17.4653 18.7958 17.4758 18.7931C17.4812 18.7915 17.4855 18.7904 17.4904 18.7888C17.4942 18.7864 17.4988 18.7836 17.5026 18.782C17.5037 18.7812 17.5047 18.7805 17.5057 18.7798C17.5123 18.7703 17.5227 18.7598 17.5324 18.751C17.5367 18.7423 17.5419 18.7331 17.5471 18.7253C17.5495 18.7128 17.553 18.6997 17.558 18.6896C17.5583 18.677 17.5585 18.6631 17.5587 18.6519C17.5603 18.3101 17.5587 17.9674 17.5587 17.6256V7.17507Z" fill="#FFA500"/>
<path d="M12.0462 11.4096V12.0838V13.7044V15.6644V17.3612C12.0462 17.5166 12.0425 17.6729 12.0413 17.8291C12.0404 17.9495 12.0411 18.0697 12.0462 18.1894V18.2029L12.4366 17.8291H12.0413H10.861H8.34921H8.16182H7.77143L8.16182 18.2029V17.8291V16.6219V13.5483V11.4867V11.4232V11.4142V11.405V11.3881L8.16183 11.3853C8.16196 11.3599 8.16396 11.364 8.16448 11.3757C8.16487 11.3843 8.16445 11.3972 8.16182 11.405C8.16043 11.4092 8.15841 11.412 8.15557 11.412C8.15557 11.412 8.15795 11.3997 8.16183 11.3853C8.16268 11.3822 8.16358 11.3789 8.16448 11.3757C8.16909 11.3591 8.17397 11.3428 8.17509 11.341C8.13449 11.4045 8.19227 11.2677 8.17509 11.341C8.17587 11.3391 8.18521 11.3238 8.19456 11.309C8.19628 11.3063 8.19842 11.3032 8.20008 11.3006C8.20752 11.289 8.21413 11.2797 8.21413 11.2797C8.21627 11.281 8.2164 11.2834 8.21524 11.2862C8.21246 11.293 8.20226 11.3028 8.19456 11.309C8.18446 11.3172 8.17911 11.319 8.20008 11.3006C8.20008 11.3006 8.2075 11.2935 8.21524 11.2862C8.21897 11.2827 8.22306 11.2789 8.22716 11.2751C8.23058 11.272 8.234 11.2688 8.23721 11.2659C8.24656 11.2575 8.25474 11.252 8.25474 11.252C8.25591 11.2537 8.25554 11.2557 8.25412 11.2578C8.24987 11.264 8.23623 11.2714 8.22716 11.2751C8.21646 11.2795 8.21215 11.279 8.23721 11.2659C8.24006 11.2645 8.24329 11.2628 8.24693 11.261C8.24693 11.261 8.25067 11.2595 8.25412 11.2578C8.26222 11.2537 8.27507 11.2465 8.28536 11.2408C8.29093 11.2378 8.29574 11.2352 8.29865 11.2337C8.3005 11.2328 8.30158 11.2326 8.30158 11.2326L8.29865 11.2337C8.28822 11.2378 8.2778 11.2425 8.26738 11.2466C8.27329 11.2445 8.27925 11.2426 8.28536 11.2408C8.29114 11.2392 8.29704 11.2377 8.30314 11.2363C8.30586 11.2357 8.31582 11.2335 8.32621 11.2312C8.33969 11.2282 8.3539 11.2251 8.3539 11.2251C8.29424 11.2324 8.28403 11.2326 8.32621 11.2312L8.32891 11.2311H8.35624H8.42261H9.57662H11.1757H11.7027H11.8355H11.855H11.869C11.8717 11.2311 11.8742 11.2312 11.8765 11.2312C11.9225 11.2322 11.9007 11.2333 11.8798 11.232C11.8684 11.2313 11.8573 11.2299 11.8573 11.2274C11.8573 11.2274 11.8655 11.2286 11.8765 11.2312L11.8798 11.232C11.9007 11.2371 11.9291 11.2446 11.9315 11.246C11.8651 11.2049 12.0018 11.2625 11.9315 11.246C11.9338 11.2469 11.9561 11.2597 11.9737 11.27C11.9759 11.2713 11.9777 11.2722 11.9798 11.2734C11.9888 11.2788 11.9955 11.2834 11.9955 11.2834C11.9944 11.2852 11.9875 11.2801 11.9798 11.2734C11.9617 11.2577 11.9391 11.2338 11.9737 11.27C11.976 11.2722 11.9948 11.2894 12.0088 11.3036L12.0098 11.3054C12.0186 11.3144 12.0244 11.3223 12.0244 11.3223C12.0227 11.3233 12.0182 11.318 12.0131 11.3109C12.0119 11.3092 12.011 11.3073 12.0098 11.3054L12.0088 11.3036C11.9844 11.2632 11.9962 11.2846 12.0088 11.3036L12.0098 11.3054C12.011 11.3073 12.0119 11.3092 12.0131 11.3109C12.017 11.3172 12.023 11.3267 12.0288 11.3361C12.031 11.3396 12.0331 11.3431 12.0351 11.3464C12.041 11.3561 12.0458 11.3649 12.0463 11.3671C12.0442 11.3678 12.0424 11.3673 12.0406 11.3659C12.0348 11.3611 12.0306 11.3464 12.0288 11.3361C12.0266 11.3234 12.0281 11.3174 12.0346 11.3447L12.0351 11.3464C12.0361 11.3497 12.0382 11.3571 12.0406 11.3659C12.0424 11.3724 12.0444 11.3797 12.0463 11.3867C12.0504 11.402 12.0541 11.4157 12.0541 11.4157C12.0528 11.4019 12.0509 11.3875 12.048 11.373C12.0476 11.3709 12.0468 11.3693 12.0463 11.3671V11.3867V11.4002L12.0462 11.4096C12.0501 11.6054 12.222 11.7925 12.4367 11.7835C12.627 11.7752 12.8027 11.6431 12.8249 11.4591C12.8268 11.443 12.8276 11.4265 12.8271 11.4097C12.8153 10.8955 12.3914 10.4866 11.8526 10.4769C11.7628 10.4754 11.6707 10.4769 11.5809 10.4769H10.113H8.64119C8.54515 10.4769 8.44989 10.4754 8.35385 10.4769C7.83228 10.4858 7.4208 10.8641 7.37942 11.3589C7.36537 11.5249 7.37786 11.6953 7.37786 11.8612V13.0386V16.1855C7.37786 16.847 7.36849 17.5086 7.37786 18.1678V18.1977C7.37786 18.3995 7.55744 18.5714 7.76825 18.5714H9.3439H11.8556H12.4334C12.6442 18.5714 12.8238 18.3995 12.8238 18.1977V17.5234V15.9029V13.9429V12.2461C12.8238 11.9847 12.8309 11.7219 12.8249 11.4591C12.8246 11.4453 12.8242 11.4316 12.8238 11.4179V11.4044C12.8238 11.2086 12.6442 11.0217 12.4334 11.0307C12.238 11.044 12.0675 11.1824 12.048 11.373C12.0471 11.382 12.0465 11.391 12.0463 11.4002C12.0462 11.4033 12.0462 11.4064 12.0462 11.4096Z" fill="white"/>
<path d="M12.0462 12.0838V11.4096C12.0462 11.4064 12.0462 11.4033 12.0463 11.4002V11.3867C12.0444 11.3797 12.0424 11.3724 12.0406 11.3659C12.0348 11.3611 12.0306 11.3464 12.0288 11.3361C12.023 11.3267 12.017 11.3172 12.0131 11.3109C12.0119 11.3092 12.011 11.3073 12.0098 11.3054L12.0088 11.3036C11.9948 11.2894 11.976 11.2722 11.9737 11.27C11.9561 11.2597 11.9338 11.2469 11.9315 11.246C11.9291 11.2446 11.9007 11.2371 11.8798 11.232C11.8761 11.2318 11.8723 11.2315 11.869 11.2311C11.8622 11.2303 11.8573 11.2274 11.8573 11.2274C11.8573 11.2274 11.8655 11.2286 11.8765 11.2312C11.9225 11.2322 11.9007 11.2333 11.8798 11.232C11.9007 11.2371 11.9291 11.2446 11.9315 11.246C11.9338 11.2469 11.9561 11.2597 11.9737 11.27C11.9391 11.2338 11.9617 11.2577 11.9798 11.2734C11.9888 11.2788 11.9955 11.2834 11.9955 11.2834C11.9944 11.2852 11.9875 11.2801 11.9798 11.2734C11.9777 11.2722 11.9759 11.2713 11.9737 11.27C11.976 11.2722 11.9948 11.2894 12.0088 11.3036C11.9844 11.2632 11.9962 11.2846 12.0088 11.3036L12.0098 11.3054C12.0186 11.3144 12.0244 11.3223 12.0244 11.3223C12.0227 11.3233 12.0182 11.318 12.0131 11.3109C12.017 11.3172 12.023 11.3267 12.0288 11.3361C12.0266 11.3234 12.0281 11.3174 12.0346 11.3447L12.0351 11.3464C12.041 11.3561 12.0458 11.3649 12.0463 11.3671V11.3649C12.0469 11.3676 12.0475 11.3703 12.048 11.373C12.0675 11.1824 12.238 11.044 12.4334 11.0307C12.6442 11.0217 12.8238 11.2086 12.8238 11.4044V11.4179C12.8242 11.4316 12.8246 11.4453 12.8249 11.4591C12.8268 11.443 12.8276 11.4265 12.8271 11.4097C12.8153 10.8955 12.3914 10.4866 11.8526 10.4769C11.7628 10.4754 11.6707 10.4769 11.5809 10.4769H10.113H8.64119C8.54515 10.4769 8.44989 10.4754 8.35385 10.4769C7.83228 10.4858 7.4208 10.8641 7.37942 11.3589C7.36537 11.5249 7.37786 11.6953 7.37786 11.8612V13.0386V16.1855C7.37786 16.847 7.36849 17.5086 7.37786 18.1678V18.1977C7.37786 18.3995 7.55744 18.5714 7.76825 18.5714H9.3439H11.8556H12.4334C12.6442 18.5714 12.8238 18.3995 12.8238 18.1977V17.5234V15.9029V13.9429V12.2461C12.8238 11.9847 12.8309 11.7219 12.8249 11.4591C12.8027 11.6431 12.627 11.7752 12.4367 11.7835C12.222 11.7925 12.0501 11.6054 12.0462 11.4096L12.0463 11.4002C12.0462 11.4033 12.0462 11.4064 12.0462 11.4096V12.0838V13.7044V15.6644V17.3612C12.0462 17.5166 12.0425 17.6729 12.0413 17.8291H12.4366L12.0462 18.2029V18.1894C12.0411 18.0697 12.0404 17.9495 12.0413 17.8291H10.861H8.34921H8.16182V18.2029L7.77143 17.8291H8.16182V16.6219V13.5483V11.4867V11.4232V11.4142V11.405C8.16043 11.4092 8.15841 11.412 8.15557 11.412C8.15557 11.412 8.15795 11.3997 8.16183 11.3853C8.16196 11.3599 8.16396 11.364 8.16448 11.3757C8.16909 11.3591 8.17397 11.3428 8.17509 11.341C8.17587 11.3391 8.18521 11.3238 8.19456 11.309C8.18446 11.3172 8.17911 11.319 8.20008 11.3006C8.20752 11.289 8.21413 11.2797 8.21413 11.2797C8.21627 11.281 8.2164 11.2834 8.21524 11.2862C8.21897 11.2827 8.22306 11.2789 8.22716 11.2751C8.21646 11.2795 8.21215 11.279 8.23721 11.2659C8.24656 11.2575 8.25474 11.252 8.25474 11.252C8.25591 11.2537 8.25554 11.2557 8.25412 11.2578C8.26222 11.2537 8.27507 11.2465 8.28536 11.2408C8.27925 11.2426 8.27329 11.2445 8.26738 11.2466C8.2778 11.2425 8.28822 11.2378 8.29865 11.2337C8.3005 11.2328 8.30158 11.2326 8.30158 11.2326L8.29865 11.2337C8.29574 11.2352 8.29093 11.2378 8.28536 11.2408C8.29114 11.2392 8.29704 11.2377 8.30314 11.2363C8.30586 11.2357 8.31582 11.2335 8.32621 11.2312C8.28403 11.2326 8.29424 11.2324 8.3539 11.2251C8.3539 11.2251 8.33969 11.2282 8.32621 11.2312L8.32891 11.2311H8.35624H8.42261H9.57662H11.1757H11.7027H11.8355H11.855H11.869C11.8717 11.2311 11.8742 11.2312 11.8765 11.2312C11.8655 11.2286 11.8573 11.2274 11.8573 11.2274C11.8573 11.2274 11.8622 11.2303 11.869 11.2311H11.855H11.8355H11.7027H11.1757H9.57662H8.42261H8.35624H8.32891L8.32621 11.2312C8.31582 11.2335 8.30586 11.2357 8.30314 11.2363C8.29704 11.2377 8.29114 11.2392 8.28536 11.2408C8.27507 11.2465 8.26222 11.2537 8.25412 11.2578C8.24987 11.264 8.23623 11.2714 8.22716 11.2751C8.22306 11.2789 8.21897 11.2827 8.21524 11.2862C8.21246 11.293 8.20226 11.3028 8.19456 11.309C8.18521 11.3238 8.17587 11.3391 8.17509 11.341C8.17397 11.3428 8.16909 11.3591 8.16448 11.3757C8.16487 11.3843 8.16445 11.3972 8.16182 11.405V11.4142V11.4232V11.4867V13.5483V16.6219V17.8291H8.34921H10.861H12.0413C12.0425 17.6729 12.0462 17.5166 12.0462 17.3612V15.6644V13.7044V12.0838Z" fill="white"/>
</g>
<defs>
<clipPath id="clip0">
<rect width="20" height="20" fill="white" transform="translate(0.0999756)"/>
</clipPath>
</defs>
</svg>
