<svg width="21" height="20" viewBox="0 0 21 20" fill="none" xmlns="http://www.w3.org/2000/svg">
<path d="M20.2356 15.9862L16.9503 12.7007C17.7637 11.7576 18.2577 10.5309 18.2577 9.19062C18.2577 6.2233 15.8434 3.80957 12.8768 3.80957C9.91026 3.80957 7.49591 6.22398 7.49591 9.19062C7.49591 12.1573 9.91026 14.5717 12.8768 14.5717C14.217 14.5717 15.4436 14.0777 16.3869 13.2642L19.6722 16.5496C19.7498 16.6271 19.852 16.6666 19.9536 16.6666C20.0559 16.6666 20.1575 16.6271 20.235 16.5496C20.3921 16.3945 20.392 16.142 20.2356 15.9862ZM12.8767 13.7749C10.3493 13.7749 8.29255 11.7187 8.29255 9.19062C8.29255 6.66309 10.3487 4.60633 12.8767 4.60633C15.4042 4.60633 17.4609 6.66258 17.4609 9.19062C17.4609 11.7181 15.404 13.7749 12.8767 13.7749Z" fill="#43464E"/>
<rect x="0.5" y="4.76196" width="6.19048" height="0.95238" rx="0.47619" fill="#43464E"/>
<rect x="0.5" y="10" width="5.23809" height="0.952381" rx="0.476191" fill="#43464E"/>
<rect x="0.5" y="14.762" width="8.57143" height="0.95238" rx="0.47619" fill="#43464E"/>
</svg>
