<svg width="17" height="20" viewBox="0 0 17 20" fill="none" xmlns="http://www.w3.org/2000/svg">
<path d="M16.9667 19.0244C16.9667 19.5599 16.5301 20 15.9901 20H1.27654C0.740374 20 0.299988 19.5617 0.299988 19.0244C0.299988 14.4436 4.03004 10.7317 8.63322 10.7317C13.2364 10.7317 16.9665 14.4436 16.9665 19.0244H16.9667ZM8.63342 11.7073C4.57209 11.7073 1.28056 14.9828 1.28056 19.0244C1.28056 19.0225 15.9902 19.0244 15.9902 19.0244C15.9864 14.9828 12.6948 11.7073 8.63342 11.7073ZM8.63342 9.7561C5.9259 9.7561 3.73152 7.57239 3.73152 4.87805C3.73152 2.18371 5.9259 0 8.63342 0C11.3409 0 13.5353 2.18371 13.5353 4.87805C13.5353 7.57239 11.3409 9.7561 8.63342 9.7561ZM8.63342 8.78049C10.7991 8.78049 12.5549 7.03317 12.5549 4.87805C12.5549 2.72293 10.7991 0.97561 8.63342 0.97561C6.46776 0.97561 4.7119 2.72293 4.7119 4.87805C4.7119 7.03317 6.46776 8.78049 8.63342 8.78049Z" fill="#43464E"/>
</svg>
