<svg width="17" height="16" viewBox="0 0 17 16" fill="none" xmlns="http://www.w3.org/2000/svg">
<path d="M1.94284 9.38526L2.67419 9.21908L1.94284 9.38526ZM1.94284 5.14089L2.67419 5.30707L1.94284 5.14089ZM13.6011 5.14089L14.3325 4.97471L13.6011 5.14089ZM13.6011 9.38526L12.8698 9.21908L13.6011 9.38526ZM9.82772 13.2806L9.65121 12.5517L9.82772 13.2806ZM5.71622 13.2806L5.53971 14.0095L5.71622 13.2806ZM5.71622 1.24557L5.53971 0.516632L5.71622 1.24557ZM9.82773 1.24557L10.0042 0.516632L9.82773 1.24557ZM14.728 15.5218C15.0162 15.8193 15.491 15.8269 15.7885 15.5387C16.086 15.2505 16.0936 14.7757 15.8054 14.4782L14.728 15.5218ZM2.67419 9.21908C2.38188 7.93263 2.38188 6.59352 2.67419 5.30707L1.21148 4.9747C0.869449 6.47995 0.869449 8.0462 1.21148 9.55145L2.67419 9.21908ZM12.8698 5.30707C13.1621 6.59353 13.1621 7.93263 12.8698 9.21908L14.3325 9.55144C14.6745 8.0462 14.6745 6.47995 14.3325 4.97471L12.8698 5.30707ZM9.65121 12.5517C8.41506 12.851 7.12888 12.851 5.89273 12.5517L5.53971 14.0095C7.00786 14.365 8.53609 14.365 10.0042 14.0095L9.65121 12.5517ZM5.89273 1.9745C7.12888 1.67517 8.41506 1.67517 9.65122 1.9745L10.0042 0.516632C8.53609 0.161122 7.00786 0.161123 5.53971 0.516632L5.89273 1.9745ZM5.89273 12.5517C4.30725 12.1677 3.05259 10.8844 2.67419 9.21908L1.21148 9.55145C1.71145 11.7518 3.3806 13.4867 5.53971 14.0095L5.89273 12.5517ZM10.0042 14.0095C12.1634 13.4867 13.8325 11.7518 14.3325 9.55144L12.8698 9.21908C12.4914 10.8844 11.2367 12.1677 9.65121 12.5517L10.0042 14.0095ZM9.65122 1.9745C11.2367 2.35842 12.4914 3.64178 12.8698 5.30707L14.3325 4.97471C13.8325 2.77439 12.1634 1.03946 10.0042 0.516632L9.65122 1.9745ZM5.53971 0.516632C3.3806 1.03946 1.71145 2.77439 1.21148 4.9747L2.67419 5.30707C3.05259 3.64178 4.30725 2.35842 5.89273 1.9745L5.53971 0.516632ZM11.9668 12.6714L14.728 15.5218L15.8054 14.4782L13.0442 11.6277L11.9668 12.6714Z" fill="white"/>
</svg>
