<svg width="13" height="13" viewBox="0 0 13 13" fill="none" xmlns="http://www.w3.org/2000/svg">
<path d="M6.23734 13C6.60248 13.0011 6.95286 12.856 7.21031 12.597L12.597 7.20961C12.8813 6.92615 13.0271 6.53235 12.9958 6.13212L12.652 1.61726C12.603 0.938167 12.0619 0.398553 11.3827 0.35137L6.86788 0.00756373C6.83281 0 6.79706 0 6.76199 0C6.39766 0.000935316 6.04846 0.145759 5.7904 0.40294L0.402988 5.78969C0.144964 6.04761 0 6.39749 0 6.76232C0 7.12715 0.144964 7.47702 0.402988 7.73494L5.26507 12.597C5.52235 12.8558 5.87245 13.0009 6.23734 13ZM6.76268 1.37522L11.281 1.71903L11.6248 6.23733L6.23734 11.6248L1.37595 6.76335L6.76268 1.37522ZM9.15487 5.22035C9.81095 5.22049 10.3758 4.75714 10.5039 4.11368C10.632 3.47022 10.2878 2.82587 9.68166 2.57468C9.07556 2.32349 8.37643 2.53544 8.01184 3.0809C7.64724 3.62636 7.71873 4.35341 8.18259 4.81741C8.43987 5.07617 8.78997 5.22126 9.15487 5.22035Z" fill="#2E3A59"/>
</svg>
