<svg width="21" height="20" viewBox="0 0 21 20" fill="none" xmlns="http://www.w3.org/2000/svg">
<path d="M6.35454 2C2.92227 2 0.941812 4.78278 0.899994 7.13767V7.14466C0.899994 9.77467 2.28404 12.0193 4.17408 13.9389C6.06413 15.8585 8.47272 17.4838 10.6443 18.9227C10.7988 19.0258 11.0012 19.0258 11.1557 18.9227C13.3272 17.4836 15.7357 15.8585 17.6259 13.9389C19.5161 12.0193 20.9 9.77467 20.9 7.14466V7.13767C20.8583 4.78301 18.8776 2 15.4454 2C13.5172 2 11.8314 2.90782 10.9 4.15291C9.9687 2.90782 8.28272 2 6.35454 2ZM6.35454 2.89471C8.23131 2.89471 9.91272 3.96417 10.4952 5.11052C10.5733 5.25993 10.7296 5.35428 10.9 5.35428C11.0705 5.35428 11.2267 5.25992 11.3049 5.11052C11.8872 3.96417 13.5687 2.89471 15.4455 2.89471C18.3735 2.89471 19.9546 5.27309 19.991 7.1446V7.15159C19.9883 9.46957 18.7694 11.4914 16.9726 13.3166C15.2432 15.0737 12.9962 16.6141 10.9001 18.0069C8.80402 16.6142 6.55713 15.0738 4.82758 13.3166C3.03072 11.4914 1.81168 9.46957 1.80918 7.15159V7.1446C1.84558 5.27304 3.42672 2.89471 6.35463 2.89471H6.35454Z" fill="#43464E"/>
</svg>
