<svg width="15" height="18" viewBox="0 0 15 18" fill="none" xmlns="http://www.w3.org/2000/svg">
<path d="M15 17.122C15 17.6039 14.6071 18 14.1211 18H0.878901C0.396348 18 0 17.6056 0 17.122C0 12.9992 3.35705 9.65854 7.49991 9.65854C11.6428 9.65854 14.9998 12.9992 14.9998 17.122H15ZM7.50009 10.5366C3.8449 10.5366 0.882519 13.4845 0.882519 17.122C0.882519 17.1202 14.1212 17.122 14.1212 17.122C14.1177 13.4845 11.1553 10.5366 7.50009 10.5366ZM7.50009 8.78049C5.06332 8.78049 3.08838 6.81515 3.08838 4.39024C3.08838 1.96534 5.06332 0 7.50009 0C9.93685 0 11.9118 1.96534 11.9118 4.39024C11.9118 6.81515 9.93685 8.78049 7.50009 8.78049ZM7.50009 7.90244C9.44918 7.90244 11.0295 6.32985 11.0295 4.39024C11.0295 2.45063 9.44918 0.878049 7.50009 0.878049C5.55099 0.878049 3.97072 2.45063 3.97072 4.39024C3.97072 6.32985 5.55099 7.90244 7.50009 7.90244Z" fill="#43464E"/>
</svg>
